<svg width="78" height="42" viewBox="0 0 78 42" fill="none" xmlns="http://www.w3.org/2000/svg">
<path d="M2.33684 21.6479L1.55774 22.4269C0.814087 23.1706 0.814087 24.3763 1.55774 25.1199L11.8801 35.4423C12.6237 36.1859 13.8294 36.1859 14.5731 35.4423L15.3521 34.6632L2.33684 21.6479Z" fill="white"/>
<path d="M30.4099 6.58872C29.6249 5.80376 28.3523 5.80376 27.5674 6.58872L26.1616 7.99446L29.0041 10.8369L30.4099 9.43119C31.1949 8.64624 31.1949 7.37362 30.4099 6.58872Z" fill="white"/>
<path d="M27.7615 12.0798L24.919 9.23737L15.2174 18.9389C12.4998 17.4503 9.02087 17.8564 6.7192 20.158L5.02612 21.8511L15.1492 31.9741L16.8423 30.281C19.1445 27.9788 19.5502 24.4988 18.0604 21.7809L27.7615 12.0798Z" fill="white"/>
<path d="M50.624 7.52C50.272 7.47733 49.6533 7.41867 48.768 7.344C48.2773 7.32267 47.8827 7.312 47.584 7.312C47.2 7.312 46.8373 7.32267 46.496 7.344V4.864H46.896C47.7707 4.864 48.6773 4.92267 49.616 5.04C49.9147 5.08267 50.2507 5.14133 50.624 5.216V7.52ZM47.984 12.752C47.984 12.528 47.968 12.368 47.936 12.272C47.904 12.1653 47.8507 12.096 47.776 12.064C47.7013 12.0213 47.5733 11.9893 47.392 11.968L45.424 11.728C44.2613 11.6 43.4773 11.2213 43.072 10.592C42.8907 10.3253 42.768 10 42.704 9.616C42.64 9.232 42.608 8.76267 42.608 8.208C42.608 7.024 42.912 6.17067 43.52 5.648C44.0107 5.22133 44.7787 4.97067 45.824 4.896V8.112C45.824 8.25067 45.8293 8.368 45.84 8.464C45.8507 8.56 45.872 8.63467 45.904 8.688C45.936 8.752 45.9893 8.8 46.064 8.832C46.1387 8.85333 46.2507 8.86933 46.4 8.88L48.608 9.152C49.0667 9.216 49.44 9.296 49.728 9.392C50.016 9.488 50.2613 9.63733 50.464 9.84C50.944 10.3413 51.184 11.232 51.184 12.512C51.184 13.8667 50.8853 14.816 50.288 15.36C50.0213 15.6053 49.696 15.7867 49.312 15.904C48.9387 16.0107 48.496 16.08 47.984 16.112V12.752ZM47.136 16.128C46.0693 16.128 45.0773 16.08 44.16 15.984C43.616 15.9307 43.2053 15.8773 42.928 15.824V13.488C43.5573 13.5413 44.2773 13.5947 45.088 13.648C45.6 13.6693 45.9627 13.68 46.176 13.68C46.752 13.68 47.1307 13.664 47.312 13.632V16.128H47.136ZM52.8369 4.992H56.0369V16H52.8369V4.992ZM56.7089 4.992H60.7729V7.44H56.7089V4.992ZM56.7089 9.216H60.0209V11.664H56.7089V9.216ZM56.7089 13.552H60.7729V16H56.7089V13.552ZM62.6963 5.44V4.992H65.8963L72.0723 15.536V16H68.8883L62.6963 5.44ZM69.0323 9.008V4.992H72.0723V14.208L69.0323 9.008ZM62.6963 6.768L65.7363 11.968V16H62.6963V6.768ZM43.04 25.992H46.24V37H43.04V25.992ZM46.912 34.552H47.568C47.8667 34.552 48.0907 34.5467 48.24 34.536C48.4 34.5147 48.5173 34.472 48.592 34.408C48.6667 34.344 48.7147 34.2533 48.736 34.136C48.768 34.0187 48.784 33.848 48.784 33.624C48.784 33.3893 48.768 33.2133 48.736 33.096C48.7147 32.9787 48.6667 32.888 48.592 32.824C48.464 32.7173 48.1227 32.664 47.568 32.664H46.912V30.216H47.472C47.7707 30.216 47.9947 30.2107 48.144 30.2C48.304 30.1787 48.4213 30.136 48.496 30.072C48.5707 30.008 48.6187 29.9227 48.64 29.816C48.672 29.6987 48.688 29.5387 48.688 29.336C48.688 29.1227 48.672 28.9627 48.64 28.856C48.6187 28.7387 48.5707 28.648 48.496 28.584C48.4213 28.52 48.304 28.4827 48.144 28.472C47.9947 28.4507 47.7707 28.44 47.472 28.44H46.912V25.992H48.736C50.88 25.992 51.952 26.9147 51.952 28.76C51.952 29.5387 51.7973 30.1253 51.488 30.52C51.1893 30.9147 50.7093 31.192 50.048 31.352V31.416C50.7413 31.576 51.2373 31.8267 51.536 32.168C51.8773 32.5733 52.048 33.2027 52.048 34.056C52.048 35.0373 51.7867 35.7733 51.264 36.264C50.7413 36.7547 49.904 37 48.752 37H46.912V34.552ZM56.2548 25.992H56.5268L57.7908 30.376L55.9508 37H52.7508L56.2548 25.992ZM59.8548 35.048H57.1828L57.8548 32.584H59.1348L57.2468 25.992H60.1748L63.6788 37H60.4148L59.8548 35.048ZM63.1284 25.992H72.1364V28.552H63.1284V25.992ZM66.0244 29.192H69.2244V37H66.0244V29.192Z" fill="white"/>
</svg>