<svg width="554" height="389" viewBox="0 0 554 389" fill="none" xmlns="http://www.w3.org/2000/svg">
<path opacity="0.1" d="M9.38379 310.808C23.1056 338.138 50.9832 356.412 79.8631 368.464C102.986 378.049 127.428 384.344 152.425 387.152C157.212 387.701 162.015 388.126 166.834 388.429C179.146 389.203 191.498 389.19 203.809 388.389C211.214 387.914 218.593 387.154 225.947 386.11C251.498 382.513 276.408 375.512 299.965 365.308C306.764 362.353 313.425 359.126 319.949 355.629C330.844 349.801 341.284 343.211 351.184 335.914C353.375 334.298 355.538 332.648 357.673 330.962L358.552 330.269C360.231 328.933 361.894 327.567 363.584 326.24C366.392 323.97 369.372 321.907 372.501 320.067C372.713 319.948 372.924 319.828 373.141 319.713C373.72 319.389 374.309 319.085 374.908 318.796C376.143 318.195 377.409 317.656 378.7 317.18C384.668 314.986 391.058 314.189 397.537 314.323C398.612 314.323 399.686 314.393 400.766 314.463C402.274 314.563 403.788 314.712 405.297 314.902L405.855 314.977C410.662 315.633 415.415 316.618 420.078 317.923C427.28 319.918 434.352 322.411 441.472 324.66C444.494 325.622 447.521 326.54 450.575 327.362L451.246 327.542C455.589 328.721 460.009 329.614 464.477 330.214C474.631 331.467 484.943 330.666 494.757 327.861L495.098 327.766L495.729 327.587L496.591 327.327C498.038 326.889 499.472 326.408 500.895 325.886L501.758 325.567C503.135 325.055 504.484 324.505 505.803 323.917L506.666 323.538C508.043 322.92 509.392 322.266 510.711 321.578C511.186 321.339 511.656 321.08 512.121 320.835C513.527 320.077 514.904 319.283 516.255 318.452C517.687 317.571 519.089 316.652 520.46 315.695C521.094 315.256 521.721 314.805 522.34 314.343C525.914 311.705 529.261 308.792 532.348 305.632C532.518 305.468 532.678 305.298 532.838 305.134C533.66 304.276 534.466 303.403 535.246 302.511C535.535 302.182 535.825 301.853 536.109 301.514C537.035 300.423 537.929 299.308 538.79 298.168C538.919 298.003 539.043 297.834 539.167 297.669C542.697 292.958 545.624 287.851 547.883 282.461C547.955 282.297 548.022 282.127 548.084 281.963C548.773 280.251 549.402 278.51 549.97 276.742C550.203 276.004 550.425 275.246 550.621 274.508C550.688 274.289 550.75 274.064 550.807 273.845C553.659 263.01 553.984 251.746 553.984 240.547C553.984 239.24 553.984 237.936 553.984 236.633C553.902 218.518 553.612 200.093 550.843 182.228C550.843 182.103 550.807 181.978 550.786 181.859C549.86 175.844 548.599 169.882 547.01 163.998C545.347 157.824 543.221 151.775 540.65 145.898C534.28 131.438 525.017 118.279 514.73 106.083C502.331 91.4081 488.124 77.8654 472.299 66.6913C470.026 65.0857 467.722 63.5267 465.387 62.0142L464.307 61.331C463.93 61.0867 463.553 60.8324 463.175 60.618C462.4 60.1194 461.626 59.6507 460.84 59.177L459.962 58.6484L458.288 57.6512L457.771 57.367L456.878 56.8683L455.994 56.3697C454.961 55.7813 453.916 55.2063 452.858 54.6445C448.343 52.2145 443.721 49.994 438.992 47.9829C437.597 47.3878 436.193 46.8144 434.781 46.2626C428.37 43.7425 421.784 41.6581 415.072 40.0248C412.592 39.4198 410.096 38.8879 407.585 38.4292C404.623 37.8774 401.646 37.4203 398.653 37.058C393.89 36.4796 389.1 36.1351 384.301 36.0258C350.554 35.233 316.467 45.8338 290.02 66.1527C279.481 74.2504 270.011 83.839 258.175 90.0468C247.842 95.4519 235.747 97.6908 224.681 93.4375C215.537 89.9222 209.585 88.177 199.314 88.7105C178.062 89.8659 157.109 94.0949 137.158 101.256C136.352 101.54 135.546 101.834 134.745 102.129C82.715 121.351 37.9795 159.52 14.7413 208.57C14.1282 209.866 13.5307 211.173 12.9486 212.489C-0.912732 243.728 -5.91377 280.352 9.38379 310.808Z" fill="#19D3DA"/>
<path opacity="0.1" d="M450.59 138.314V327.372L451.262 327.552C455.604 328.731 460.025 329.624 464.493 330.224C474.646 331.477 484.958 330.676 494.773 327.871L495.114 327.776L495.744 327.597L496.607 327.337C498.054 326.899 499.488 326.418 500.911 325.896L501.773 325.577C503.151 325.065 504.499 324.515 505.819 323.927L506.681 323.548C508.059 322.93 509.407 322.276 510.727 321.588C511.202 321.349 511.672 321.09 512.137 320.845C513.542 320.087 514.92 319.293 516.27 318.462C517.703 317.581 519.105 316.662 520.476 315.704C521.109 315.266 521.736 314.815 522.356 314.353C525.93 311.715 529.277 308.802 532.363 305.642C532.534 305.478 532.694 305.308 532.854 305.144C533.676 304.286 534.482 303.413 535.262 302.521C535.551 302.192 535.84 301.863 536.124 301.524C537.051 300.433 537.945 299.318 538.806 298.178C538.935 298.013 539.059 297.844 539.183 297.679C542.713 292.968 545.639 287.861 547.899 282.471C547.971 282.307 548.038 282.137 548.1 281.972C548.789 280.261 549.417 278.52 549.986 276.752C550.218 276.014 550.44 275.256 550.637 274.518C550.704 274.299 550.766 274.074 550.823 273.855C553.675 263.02 554 251.756 554 240.557C554 239.25 554 237.946 554 236.642C553.917 218.527 553.628 200.103 550.859 182.237C550.859 182.113 550.823 181.988 550.802 181.869C549.875 175.854 548.615 169.892 547.025 164.008H494.267V138.314H483.748V117.676H461.109V138.314H450.59Z" fill="#19D3DA"/>
<path opacity="0.1" d="M9.38359 310.808C23.1054 338.138 50.983 356.412 79.8629 368.464C102.986 378.049 127.428 384.344 152.424 387.152C157.212 387.701 162.015 388.126 166.833 388.429C179.146 389.203 191.498 389.19 203.809 388.389C211.214 387.914 218.593 387.154 225.947 386.11C251.497 382.513 276.408 375.512 299.965 365.308C306.764 362.352 313.425 359.126 319.948 355.629C330.844 349.801 341.284 343.211 351.184 335.914C353.375 334.298 355.538 332.648 357.673 330.962L358.551 330.269C360.23 328.933 361.894 327.567 363.583 326.24C366.391 323.97 369.372 321.907 372.501 320.067C372.712 319.948 372.924 319.828 373.141 319.713C373.72 319.389 374.309 319.085 374.908 318.796C376.143 318.195 377.408 317.656 378.7 317.18V239.839H282.818V257.056H240.738V131.114H191.208V181.475H166.709V151.657H146.468V119.805H137.168V101.256C136.362 101.54 135.556 101.834 134.755 102.128V119.805H125.704V151.677H105.478V181.495H75.6524V295.096H28.2459V212.479H12.969C-0.912976 243.728 -5.91397 280.352 9.38359 310.808Z" fill="#19D3DA"/>
<path opacity="0.1" d="M203.799 150.066H225.937V171.432H203.799V150.066Z" fill="#19D3DA"/>
<path opacity="0.1" d="M203.799 194.354H225.937V215.72H203.799V194.354Z" fill="#19D3DA"/>
<path opacity="0.1" d="M203.799 238.647H225.937V260.013H203.799V238.647Z" fill="#19D3DA"/>
<path opacity="0.1" d="M203.799 282.94H225.937V304.306H203.799V282.94Z" fill="#19D3DA"/>
<path opacity="0.1" d="M203.799 327.228H225.937V348.594H203.799V327.228Z" fill="#19D3DA"/>
<path opacity="0.1" d="M203.799 371.511V388.384C211.204 387.909 218.583 387.149 225.937 386.105V371.511H203.799Z" fill="#19D3DA"/>
<path opacity="0.1" d="M293.91 267.453H371.4V277.131H293.91V267.453Z" fill="#19D3DA"/>
<path opacity="0.1" d="M293.91 296.846H371.4V306.525H293.91V296.846Z" fill="#19D3DA"/>
<path opacity="0.1" d="M293.911 326.24V335.914H351.174C353.365 334.298 355.528 332.648 357.663 330.962L358.542 330.269C360.221 328.933 361.884 327.567 363.574 326.24H293.911Z" fill="#19D3DA"/>
<path opacity="0.1" d="M293.91 355.629V365.308H299.955C306.753 362.352 313.415 359.126 319.938 355.629H293.91Z" fill="#19D3DA"/>
<path opacity="0.1" d="M152.414 207.922H166.823V221.828H152.414V207.922Z" fill="#19D3DA"/>
<path opacity="0.1" d="M464.462 143.11H478.871V157.017H464.462V143.11Z" fill="#19D3DA"/>
<path opacity="0.1" d="M464.462 175.421H478.871V189.328H464.462V175.421Z" fill="#19D3DA"/>
<path opacity="0.1" d="M464.462 207.727H478.871V221.634H464.462V207.727Z" fill="#19D3DA"/>
<path opacity="0.1" d="M464.462 240.038H478.871V253.945H464.462V240.038Z" fill="#19D3DA"/>
<path opacity="0.1" d="M464.462 272.349H478.871V286.256H464.462V272.349Z" fill="#19D3DA"/>
<path opacity="0.1" d="M464.462 304.655H478.871V318.562H464.462V304.655Z" fill="#19D3DA"/>
<path opacity="0.1" d="M97.3977 207.922H111.807V221.828H97.3977V207.922Z" fill="#19D3DA"/>
<path opacity="0.1" d="M152.414 242.227H166.823V256.134H152.414V242.227Z" fill="#19D3DA"/>
<path opacity="0.1" d="M97.3977 242.227H111.807V256.134H97.3977V242.227Z" fill="#19D3DA"/>
<path opacity="0.1" d="M152.414 276.537H166.823V290.444H152.414V276.537Z" fill="#19D3DA"/>
<path opacity="0.1" d="M97.3977 276.537H111.807V290.444H97.3977V276.537Z" fill="#19D3DA"/>
<path opacity="0.1" d="M152.414 310.848H166.823V324.754H152.414V310.848Z" fill="#19D3DA"/>
<path opacity="0.1" d="M97.3977 310.848H111.807V324.754H97.3977V310.848Z" fill="#19D3DA"/>
<path opacity="0.1" d="M152.414 345.153H166.823V359.06H152.414V345.153Z" fill="#19D3DA"/>
<path opacity="0.1" d="M97.3977 345.153H111.807V359.06H97.3977V345.153Z" fill="#19D3DA"/>
<path opacity="0.1" d="M166.823 388.429V379.459H152.414V387.152L166.823 388.429Z" fill="#19D3DA"/>
<path opacity="0.1" d="M550.854 181.874V189.852H495.744V181.874H550.854ZM545.945 189.353H549.991V182.372H545.945V189.353ZM541.037 189.353H545.083V182.372H541.037V189.353ZM536.129 189.353H540.175V182.372H536.129V189.353ZM531.221 189.353H535.267V182.372H531.221V189.353ZM526.313 189.353H530.359V182.372H526.313V189.353ZM521.405 189.353H525.451V182.372H521.405V189.353ZM516.497 189.353H520.543V182.372H516.497V189.353ZM511.589 189.353H515.634V182.372H511.589V189.353ZM506.681 189.353H510.726V182.372H506.681V189.353ZM501.773 189.353H505.818V182.372H501.773V189.353ZM496.607 189.353H500.91V182.372H496.607V189.353Z" fill="#19D3DA"/>
<path opacity="0.1" d="M550.854 205.04V212.993H495.744V205.04H550.854ZM545.945 212.494H549.991V205.538H545.945V212.494ZM541.037 212.494H545.083V205.538H541.037V212.494ZM536.129 212.494H540.175V205.538H536.129V212.494ZM531.221 212.494H535.267V205.538H531.221V212.494ZM526.313 212.494H530.359V205.538H526.313V212.494ZM521.405 212.494H525.451V205.538H521.405V212.494ZM516.497 212.494H520.543V205.538H516.497V212.494ZM511.589 212.494H515.634V205.538H511.589V212.494ZM506.681 212.494H510.726V205.538H506.681V212.494ZM501.773 212.494H505.818V205.538H501.773V212.494ZM496.607 212.494H500.91V205.538H496.607V212.494Z" fill="#19D3DA"/>
<path opacity="0.1" d="M550.854 228.201V236.154H495.744V228.201H550.854ZM545.945 235.655H549.991V228.699H545.945V235.655ZM541.037 235.655H545.083V228.699H541.037V235.655ZM536.129 235.655H540.175V228.699H536.129V235.655ZM531.221 235.655H535.267V228.699H531.221V235.655ZM526.313 235.655H530.359V228.699H526.313V235.655ZM521.405 235.655H525.451V228.699H521.405V235.655ZM516.497 235.655H520.543V228.699H516.497V235.655ZM511.589 235.655H515.634V228.699H511.589V235.655ZM506.681 235.655H510.726V228.699H506.681V235.655ZM501.773 235.655H505.818V228.699H501.773V235.655ZM496.607 235.655H500.91V228.699H496.607V235.655Z" fill="#19D3DA"/>
<path opacity="0.1" d="M550.854 251.342V259.32H495.744V251.342H550.854ZM545.945 258.821H549.991V251.841H545.945V258.821ZM541.037 258.821H545.083V251.841H541.037V258.821ZM536.129 258.821H540.175V251.841H536.129V258.821ZM531.221 258.821H535.267V251.841H531.221V258.821ZM526.313 258.821H530.359V251.841H526.313V258.821ZM521.405 258.821H525.451V251.841H521.405V258.821ZM516.497 258.821H520.543V251.841H516.497V258.821ZM511.589 258.821H515.634V251.841H511.589V258.821ZM506.681 258.821H510.726V251.841H506.681V258.821ZM501.773 258.821H505.818V251.841H501.773V258.821ZM496.607 258.821H500.91V251.841H496.607V258.821Z" fill="#19D3DA"/>
<path opacity="0.1" d="M550.642 274.523C550.445 275.271 550.223 276.019 549.991 276.757V275.022H545.945V282.002H548.105C548.043 282.167 547.976 282.336 547.903 282.501H495.723V274.523H550.642ZM541.037 282.002H545.083V275.022H541.037V282.002ZM536.129 282.002H540.175V275.022H536.129V282.002ZM531.221 282.002H535.267V275.022H531.221V282.002ZM526.313 282.002H530.359V275.022H526.313V282.002ZM521.405 282.002H525.45V275.022H521.405V282.002ZM516.497 282.002H520.542V275.022H516.497V282.002ZM511.589 282.002H515.634V275.022H511.589V282.002ZM506.681 282.002H510.726V275.022H506.681V282.002ZM501.773 282.002H505.818V275.022H501.773V282.002ZM496.607 282.002H500.91V275.022H496.607V282.002Z" fill="#19D3DA"/>
<path opacity="0.1" d="M539.188 297.684C539.064 297.849 538.94 298.018 538.811 298.183H536.13V301.528C535.845 301.863 535.556 302.192 535.267 302.526V298.188H531.221V305.168H532.859C532.699 305.333 532.539 305.503 532.368 305.667H495.744V297.689L539.188 297.684ZM526.313 305.163H530.359V298.183H526.313V305.163ZM521.405 305.163H525.451V298.183H521.405V305.163ZM516.497 305.163H520.543V298.183H516.497V305.163ZM511.589 305.163H515.635V298.183H511.589V305.163ZM506.681 305.163H510.727V298.183H506.681V305.163ZM501.773 305.163H505.819V298.183H501.773V305.163ZM496.607 305.163H500.91V298.183H496.607V305.163Z" fill="#19D3DA"/>
<path opacity="0.1" d="M512.137 320.845C511.672 321.1 511.202 321.344 510.726 321.588V321.344H506.681V323.548L505.818 323.927V321.344H501.773V325.577L500.91 325.896V321.344H496.607V327.327L495.744 327.587V320.845H512.137Z" fill="#19D3DA"/>
<path opacity="0.1" d="M342.206 112.809C342.206 112.809 354.522 112.091 353.055 120.418C353.13 120.841 353.065 121.277 352.868 121.662C352.671 122.047 352.353 122.362 351.96 122.562C351.96 122.562 351.96 121.944 350.699 122.153C350.257 122.223 349.808 122.243 349.361 122.213C348.756 122.175 348.182 121.947 347.723 121.565V121.565C347.723 121.565 344.262 120.184 342.913 114.724C342.913 114.724 341.921 113.532 341.958 113.228L344.024 114.085C344.024 114.085 343.311 115.531 343.869 116.733C343.869 116.733 343.936 114.14 344.339 114.2C344.417 114.2 345.419 114.699 345.419 114.699C345.419 114.699 344.195 117.222 345.119 119.052C345.119 119.052 344.768 115.95 345.796 114.883L347.294 115.716C347.294 115.716 345.863 118.319 346.835 120.443C346.835 120.443 346.581 117.187 347.599 115.92L348.927 116.918C348.927 116.918 347.584 119.481 348.41 121.246C348.41 121.246 348.519 117.451 349.221 117.162C349.726 117.572 350.175 118.041 350.56 118.558C350.56 118.558 349.64 120.418 350.208 121.4C350.208 121.4 350.56 118.877 350.849 118.862C350.849 118.862 352.001 120.538 352.12 121.685C352.067 120.621 351.725 119.589 351.128 118.693C351.793 118.814 352.408 119.121 352.895 119.575C352.895 119.575 352.714 118.394 350.828 118.289C350.828 118.289 349.872 117.022 349.614 116.943C349.614 116.943 351.479 116.793 352.611 117.277C352.611 117.277 351.613 116.16 349.273 116.668L347.966 115.636C347.966 115.636 350.42 115.312 351.458 115.671C351.458 115.671 350.265 114.674 347.615 115.402L346.189 114.579C347.284 114.348 348.406 114.254 349.526 114.3C349.526 114.3 348.214 113.617 345.77 114.36L344.737 113.916C344.737 113.916 346.287 113.627 346.716 113.582C347.145 113.537 347.191 113.417 347.191 113.417C346.221 113.261 345.224 113.368 344.313 113.726C344.313 113.726 342.169 112.939 342.206 112.809Z" fill="#19D3DA"/>
<path opacity="0.1" d="M374.536 153.332C374.536 153.332 378.747 164.521 370.057 165.544C369.659 165.732 369.21 165.795 368.773 165.723C368.336 165.65 367.933 165.446 367.624 165.14C367.624 165.14 368.228 164.945 367.67 163.853C367.475 163.465 367.326 163.057 367.226 162.637C367.095 162.065 367.161 161.469 367.412 160.936V160.936C367.412 160.936 367.799 157.341 372.842 154.544C372.842 154.544 373.741 153.282 374.056 153.232L373.798 155.402C373.798 155.402 372.16 155.152 371.121 156.01C371.121 156.01 373.705 155.337 373.772 155.726C373.772 155.8 373.581 156.867 373.581 156.867C373.581 156.867 370.729 156.449 369.174 157.825C369.174 157.825 372.16 156.618 373.508 157.271L373.105 158.857C373.105 158.857 370.114 158.279 368.28 159.774C368.28 159.774 371.442 158.623 372.992 159.201L372.377 160.697C372.377 160.697 369.447 160.198 367.929 161.44C367.929 161.44 371.731 160.443 372.211 161.031C371.947 161.612 371.61 162.159 371.209 162.661C371.209 162.661 369.096 162.342 368.285 163.16C368.285 163.16 370.894 162.766 370.987 163.025C370.987 163.025 369.649 164.571 368.543 165.02C369.582 164.665 370.506 164.055 371.225 163.25C371.293 163.902 371.162 164.559 370.848 165.14C370.848 165.14 371.974 164.641 371.545 162.871C371.545 162.871 372.537 161.629 372.537 161.375C372.537 161.375 373.219 163.055 373.054 164.242C373.054 164.242 373.88 163.001 372.713 160.981L373.364 159.485C373.364 159.485 374.397 161.664 374.324 162.731C374.324 162.731 374.965 161.34 373.498 159.091L373.906 157.541C374.447 158.482 374.858 159.488 375.13 160.532C375.13 160.532 375.44 159.121 374.009 157.072L374.159 156.005C374.159 156.005 374.882 157.341 375.053 157.745C375.223 158.149 375.353 158.134 375.353 158.134C375.234 157.191 374.845 156.299 374.231 155.556C374.231 155.556 374.397 153.332 374.536 153.332Z" fill="#19D3DA"/>
<path opacity="0.1" d="M292.892 143.898C292.892 143.898 297.098 155.107 288.413 156.105C288.014 156.293 287.563 156.355 287.125 156.282C286.687 156.209 286.284 156.003 285.974 155.696C285.974 155.696 286.584 155.501 286.021 154.414C285.824 154.026 285.676 153.616 285.582 153.193C285.45 152.622 285.513 152.025 285.763 151.492C285.763 151.492 286.15 147.897 291.192 145.1C291.192 145.1 292.097 143.843 292.412 143.794L292.148 145.958C292.148 145.958 290.511 145.713 289.472 146.571C289.472 146.571 292.055 145.898 292.128 146.282C292.128 146.361 291.936 147.424 291.936 147.424C291.936 147.424 289.085 147.01 287.524 148.381C287.524 148.381 290.511 147.179 291.864 147.827L291.456 149.418C291.456 149.418 288.465 148.835 286.631 150.336C286.631 150.336 289.798 149.179 291.347 149.757L290.733 151.253C290.733 151.253 287.803 150.754 286.284 151.996C286.284 151.996 290.082 150.999 290.567 151.592C290.294 152.175 289.947 152.723 289.534 153.223C289.534 153.223 287.426 152.898 286.61 153.721C286.61 153.721 289.219 153.327 289.312 153.592C289.312 153.592 287.979 155.132 286.873 155.586C287.911 155.233 288.834 154.622 289.55 153.816C289.618 154.467 289.489 155.124 289.178 155.706C289.178 155.706 290.299 155.207 289.87 153.442C289.87 153.442 290.862 152.195 290.867 151.946C290.867 151.946 291.544 153.631 291.384 154.813C291.384 154.813 292.21 153.577 291.043 151.552L291.694 150.056C291.694 150.056 292.727 152.235 292.655 153.297C292.655 153.297 293.295 151.911 291.828 149.662L292.241 148.107C292.782 149.049 293.194 150.054 293.466 151.098C293.466 151.098 293.77 149.687 292.339 147.638L292.489 146.571C292.489 146.571 293.213 147.907 293.388 148.311C293.564 148.715 293.688 148.7 293.688 148.7C293.565 147.757 293.176 146.865 292.562 146.122C292.562 146.122 292.748 143.903 292.892 143.898Z" fill="#19D3DA"/>
<path opacity="0.1" d="M409.601 235.386C409.601 235.386 413.811 246.58 405.122 247.602C404.723 247.791 404.273 247.854 403.836 247.78C403.399 247.707 402.997 247.501 402.688 247.193C402.688 247.193 403.293 246.999 402.735 245.912C402.536 245.523 402.387 245.113 402.29 244.69C402.157 244.119 402.222 243.522 402.476 242.99V242.99C402.476 242.99 402.864 239.395 407.906 236.603C407.906 236.603 408.805 235.341 409.12 235.291L408.862 237.455C408.862 237.455 407.219 237.211 406.186 238.068C406.186 238.068 408.769 237.395 408.836 237.779C408.836 237.859 408.645 238.921 408.645 238.921C408.645 238.921 405.793 238.507 404.238 239.879C404.238 239.879 407.224 238.677 408.573 239.325L408.17 240.916C408.17 240.916 405.178 240.332 403.344 241.833C403.344 241.833 406.506 240.676 408.056 241.255L407.441 242.751C407.441 242.751 404.512 242.252 402.993 243.494C402.993 243.494 406.79 242.496 407.276 243.09C407.011 243.67 406.675 244.218 406.274 244.72C406.274 244.72 404.161 244.396 403.344 245.219C403.344 245.219 405.958 244.825 406.051 245.089C406.051 245.089 404.713 246.63 403.608 247.084C404.646 246.732 405.571 246.123 406.289 245.318C406.357 245.969 406.226 246.624 405.912 247.203C405.912 247.203 407.038 246.705 406.609 244.94C406.609 244.94 407.596 243.693 407.601 243.444C407.601 243.444 408.283 245.129 408.118 246.311C408.118 246.311 408.945 245.074 407.777 243.05L408.428 241.554C408.428 241.554 409.461 243.733 409.384 244.795C409.384 244.795 410.024 243.409 408.557 241.16L408.97 239.609C409.512 240.551 409.924 241.556 410.195 242.601C410.195 242.601 410.505 241.185 409.074 239.141L409.224 238.068C409.224 238.068 409.947 239.405 410.117 239.809C410.288 240.213 410.417 240.198 410.417 240.198C410.298 239.254 409.908 238.361 409.291 237.62C409.291 237.62 409.461 235.386 409.601 235.386Z" fill="#19D3DA"/>
<path opacity="0.1" d="M426.308 129.882C426.308 129.882 430.514 141.071 421.829 142.093C421.43 142.282 420.98 142.344 420.542 142.272C420.104 142.199 419.701 141.996 419.39 141.689C419.39 141.689 420 141.495 419.437 140.403C419.242 140.014 419.095 139.604 418.998 139.181C418.866 138.612 418.929 138.017 419.179 137.486C419.179 137.486 419.566 133.891 424.614 131.094C424.614 131.094 425.513 129.832 425.828 129.782L425.564 131.951C425.564 131.951 423.927 131.702 422.893 132.56C422.893 132.56 425.476 131.886 425.544 132.275C425.544 132.35 425.352 133.417 425.352 133.417C425.352 133.417 422.501 132.998 420.94 134.375C420.94 134.375 423.927 133.168 425.28 133.821L424.877 135.407C424.877 135.407 421.886 134.823 420.047 136.324C420.047 136.324 423.214 135.167 424.763 135.751L424.149 137.247C424.149 137.247 421.219 136.748 419.7 137.995C419.7 137.995 423.498 136.997 423.983 137.586C423.719 138.166 423.382 138.714 422.981 139.216C422.981 139.216 420.868 138.897 420.052 139.715C420.052 139.715 422.661 139.321 422.754 139.58C422.754 139.58 421.421 141.126 420.315 141.575C421.353 141.219 422.277 140.609 422.997 139.805C423.065 140.457 422.934 141.114 422.619 141.694C422.619 141.694 423.746 141.196 423.312 139.426C423.312 139.426 424.304 138.184 424.309 137.93C424.309 137.93 424.986 139.61 424.825 140.797C424.825 140.797 425.657 139.555 424.485 137.536L425.141 136.04C425.141 136.04 426.174 138.219 426.096 139.286C426.096 139.286 426.737 137.895 425.27 135.646L425.683 134.095C426.224 135.037 426.635 136.043 426.908 137.087C426.908 137.087 427.212 135.676 425.786 133.627L425.931 132.56C425.931 132.56 426.66 133.896 426.83 134.295C427.001 134.694 427.13 134.689 427.13 134.689C427.01 133.745 426.62 132.852 426.003 132.111C426.003 132.111 426.164 129.882 426.308 129.882Z" fill="#19D3DA"/>
<path opacity="0.1" d="M395.083 190.814C395.083 190.814 391.833 202.282 384.125 198.293C383.687 198.226 383.282 198.027 382.968 197.724C382.655 197.421 382.448 197.031 382.378 196.608C382.378 196.608 382.988 196.787 383.179 195.586C383.252 195.159 383.377 194.742 383.551 194.344C383.78 193.803 384.189 193.35 384.714 193.058C384.714 193.058 387.178 190.335 392.98 190.854C392.98 190.854 394.468 190.33 394.757 190.465L393.248 192.085C393.248 192.085 392.055 190.973 390.696 191.088C390.696 191.088 393.223 191.986 393.037 192.33C392.995 192.399 392.2 193.157 392.2 193.157C392.2 193.157 390.133 191.228 388.025 191.482C388.025 191.482 391.182 192.16 391.895 193.447L390.619 194.519C390.619 194.519 388.521 192.38 386.124 192.579C386.124 192.579 389.405 193.397 390.324 194.733L388.919 195.626C388.919 195.626 386.853 193.576 384.838 193.761C384.838 193.761 388.526 195.072 388.583 195.81C388.019 196.138 387.415 196.397 386.785 196.583C386.785 196.583 385.235 195.147 384.104 195.351C384.104 195.351 386.475 196.483 386.393 196.748C386.393 196.748 384.378 197.246 383.215 197.007C384.274 197.296 385.392 197.314 386.46 197.057C386.128 197.627 385.628 198.091 385.024 198.388C385.024 198.388 386.243 198.602 386.946 196.922C386.946 196.922 388.495 196.458 388.661 196.249C388.661 196.249 388.206 198.004 387.369 198.882C387.369 198.882 388.785 198.328 389.038 196.024L390.469 195.162C390.469 195.162 389.999 197.51 389.317 198.343C389.317 198.343 390.67 197.565 390.815 194.913L392.076 193.875C391.953 194.951 391.685 196.007 391.28 197.017C391.28 197.017 392.37 196.02 392.427 193.566L393.186 192.773C393.186 192.773 392.98 194.269 392.882 194.693C392.783 195.117 392.882 195.192 392.882 195.192C393.347 194.354 393.562 193.408 393.502 192.459C393.502 192.459 394.964 190.739 395.083 190.814Z" fill="#19D3DA"/>
<path opacity="0.1" d="M306.924 201.056C306.924 201.056 303.674 212.524 295.971 208.535C295.532 208.469 295.126 208.271 294.811 207.968C294.496 207.665 294.289 207.273 294.22 206.85C294.22 206.85 294.835 207.029 295.026 205.852C295.094 205.425 295.218 205.008 295.393 204.611C295.625 204.07 296.035 203.618 296.56 203.324V203.324C296.56 203.324 299.024 200.602 304.826 201.125C304.826 201.125 306.314 200.597 306.598 200.731L305.095 202.352C305.095 202.352 303.902 201.24 302.543 201.355C302.543 201.355 305.069 202.252 304.878 202.596C304.842 202.666 304.041 203.424 304.041 203.424C304.041 203.424 301.974 201.494 299.867 201.749C299.867 201.749 303.028 202.427 303.741 203.713L302.46 204.785C302.46 204.785 300.394 202.646 297.971 202.846C297.971 202.846 301.246 203.663 302.166 205L300.76 205.892C300.76 205.892 298.694 203.843 296.684 204.027C296.684 204.027 300.373 205.339 300.425 206.077C299.862 206.405 299.26 206.664 298.632 206.85C298.632 206.85 297.082 205.414 295.95 205.618C295.95 205.618 298.317 206.75 298.239 207.014C298.239 207.014 296.224 207.513 295.057 207.273C296.117 207.563 297.237 207.58 298.306 207.323C297.972 207.893 297.473 208.356 296.87 208.655C296.87 208.655 298.089 208.869 298.792 207.189C298.792 207.189 300.342 206.725 300.502 206.516C300.502 206.516 300.053 208.271 299.216 209.148C299.216 209.148 300.631 208.595 300.884 206.291L302.315 205.419C302.315 205.419 301.845 207.767 301.158 208.6C301.158 208.6 302.512 207.822 302.656 205.169L303.922 204.132C303.8 205.209 303.53 206.265 303.121 207.273C303.121 207.273 304.217 206.276 304.273 203.823L305.033 203.03C305.033 203.03 304.826 204.526 304.728 204.95C304.63 205.374 304.728 205.448 304.728 205.448C305.194 204.611 305.408 203.665 305.348 202.716C305.348 202.716 306.805 200.981 306.924 201.056Z" fill="#19D3DA"/>
<path d="M339.999 316.228C339.999 316.228 313.196 307.517 318.745 276.652L352.791 268.121L360.696 293.446L339.999 316.228Z" fill="#CED7E7"/>
<path opacity="0.1" d="M360.696 293.446L340.005 316.228C340.005 316.228 313.202 307.517 318.75 276.652L360.696 293.446Z" fill="black"/>
<path d="M473.323 65.4246C473.323 65.4246 469.706 71.104 464.762 68.2668C459.818 65.4296 464.56 57.5912 464.56 57.5912C464.56 57.5912 474.03 56.3397 473.323 65.4246Z" fill="#FED253"/>
<path opacity="0.1" d="M464.762 68.2668C465.345 68.631 465.999 68.8764 466.684 68.9878C467.369 69.0993 468.07 69.0745 468.745 68.915C470.558 68.4713 471.953 67.125 472.702 66.2424C472.926 65.9838 473.133 65.7124 473.322 65.4296C473.576 62.1886 472.532 60.2589 471.085 59.122C469.096 57.5614 466.343 57.4965 465.154 57.5464C464.788 57.5464 464.576 57.5963 464.576 57.5963L464.478 57.7558C464.338 58.0101 464.033 58.5736 463.708 59.3265C462.602 61.7947 461.285 66.2673 464.762 68.2668Z" fill="black"/>
<path d="M337.364 275.201L318.766 276.652L284.151 276.926L311.424 309.337C311.424 309.337 320.078 309.791 321.86 310.968C323.643 312.144 348.668 311.516 348.668 311.516L352.708 294.902L337.364 275.201Z" fill="#BE9A9A"/>
<path opacity="0.05" d="M337.364 275.201L318.766 276.652L284.151 276.926L311.424 309.337C311.424 309.337 320.078 309.791 321.86 310.968C323.643 312.144 348.668 311.516 348.668 311.516L352.708 294.902L337.364 275.201Z" fill="black"/>
<path d="M356.175 188.061L351.85 195.142L350.91 207.488C350.91 207.488 347.898 218.014 345.64 221.1C343.383 224.187 342.443 232.359 342.443 232.359C342.443 232.359 341.502 239.983 340.376 241.614C339.25 243.244 337.741 255.077 337.741 255.077C337.741 255.077 327.77 274.319 318.744 276.677C318.744 276.677 363.511 290.838 339.999 316.253C339.999 316.253 356.738 320.242 360.69 315.709C364.642 311.177 374.985 244.002 374.985 244.002L371.787 187.358L356.175 188.061Z" fill="#CED7E7"/>
<path opacity="0.05" d="M356.175 188.061L351.85 195.142L350.91 207.488C350.91 207.488 347.898 218.014 345.64 221.1C343.383 224.187 342.443 232.359 342.443 232.359C342.443 232.359 341.502 239.983 340.376 241.614C339.25 243.244 337.741 255.077 337.741 255.077C337.741 255.077 327.77 274.319 318.744 276.677C318.744 276.677 363.511 290.838 339.999 316.253C339.999 316.253 356.738 320.242 360.69 315.709C364.642 311.177 374.985 244.002 374.985 244.002L371.787 187.358L356.175 188.061Z" fill="black"/>
<path d="M410.489 119.057C411.746 125.346 411.373 131.838 409.404 137.955L416.369 157.197C416.369 157.197 469.412 128.695 464.896 121.794C462.339 117.88 462.013 107.524 462.22 99.2963C462.37 93.0435 462.83 88.0273 462.83 88.0273C462.83 88.0273 397.734 94.2053 406.398 108.546C408.358 111.805 409.741 115.358 410.489 119.057V119.057Z" fill="#BE9A9A"/>
<path opacity="0.1" d="M406.397 108.546C408.358 111.805 409.741 115.358 410.489 119.057C420.149 122.04 430.582 121.701 440.013 118.098C449.444 114.496 457.291 107.852 462.219 99.2963C462.369 93.0435 462.829 88.0273 462.829 88.0273C462.829 88.0273 397.749 94.2053 406.397 108.546Z" fill="black"/>
<path d="M380.064 77.6809C380.06 84.3369 381.683 90.9 384.801 96.8367C387.919 102.773 392.445 107.916 398.011 111.847C403.576 115.778 410.024 118.386 416.83 119.458C423.636 120.531 430.609 120.039 437.181 118.022C443.753 116.004 449.739 112.519 454.652 107.848C459.566 103.178 463.268 97.454 465.458 91.1425C467.648 84.8311 468.264 78.1099 467.256 71.5254C466.248 64.9409 463.645 58.6788 459.657 53.2482C459.037 52.4072 458.385 51.5862 457.699 50.785C453.794 46.2038 448.934 42.4663 443.435 39.8153V39.8153C440.451 38.3747 437.305 37.2737 434.058 36.5343C428.195 35.1939 422.11 35.0321 416.18 36.0589C410.25 37.0858 404.602 39.2794 399.588 42.5032C394.574 45.727 390.301 49.9121 387.034 54.7982C383.768 59.6843 381.578 65.1667 380.602 70.9046C380.237 73.146 380.057 75.4119 380.064 77.6809Z" fill="#BE9A9A"/>
<path d="M362.762 251.606C363.418 254.987 362.597 261.165 361.351 267.453C361.3 267.727 361.243 268.001 361.186 268.275C361.129 268.55 361.047 268.973 360.974 269.317C360.401 272.02 359.776 274.698 359.166 277.131C358.556 279.564 358.009 281.648 357.544 283.364C356.841 285.932 356.361 287.547 356.361 287.547C356.361 287.547 356.299 289.133 356.216 291.656C356.17 293.112 356.118 294.887 356.066 296.846C356.066 297.415 356.03 297.993 356.015 298.592C355.989 299.634 355.963 300.716 355.937 301.823C355.937 302.182 355.937 302.541 355.911 302.905C355.911 304.096 355.865 305.313 355.844 306.525C355.818 308.19 355.798 309.856 355.787 311.471C355.787 312.089 355.787 312.698 355.787 313.296C355.787 314.842 355.787 316.323 355.787 317.684C355.844 321.548 356.004 324.465 356.345 325.308C356.464 325.597 356.573 325.911 356.676 326.24C357.124 327.788 357.449 329.367 357.647 330.962L358.525 330.269C360.204 328.933 361.868 327.567 363.557 326.24C366.366 323.97 369.346 321.907 372.475 320.067C372.686 319.948 372.898 319.828 373.115 319.713C373.694 319.389 374.283 319.085 374.882 318.796C376.117 318.195 377.382 317.656 378.674 317.18C384.641 314.986 391.032 314.189 397.511 314.323C400.094 315.276 401.773 315.959 401.773 315.959L405.059 316.916L405.606 317.076C409.166 318.123 414.172 319.609 415.975 320.227C418.889 321.224 444.189 326.305 444.189 326.305C446.5 326.914 448.861 327.331 451.246 327.552C455.589 328.731 460.009 329.624 464.477 330.224C474.63 331.477 484.942 330.676 494.757 327.871C495.05 327.888 495.344 327.879 495.635 327.846C495.454 327.846 495.279 327.806 495.119 327.776L495.749 327.597L496.612 327.337C498.058 326.899 499.493 326.418 500.915 325.896L501.778 325.577C503.156 325.065 504.504 324.515 505.823 323.927L506.686 323.548C508.064 322.93 509.412 322.276 510.731 321.588C511.207 321.349 511.677 321.09 512.142 320.845C513.547 320.087 514.925 319.293 516.275 318.462C516.502 316.582 516.621 315.326 516.621 315.326L518.636 305.642L518.739 305.144L520.186 298.163L520.289 297.664L523.435 282.476L523.539 281.977L524.985 274.997L525.089 274.498L528.276 259.32L528.38 258.821L529.826 251.841L529.929 251.342L533.091 236.134L533.195 235.635L534.641 228.679L534.745 228.181L535.318 225.438L536.181 221.285C536.181 221.285 538.934 217.485 542.034 212.993L542.38 212.494C543.264 211.233 544.173 209.921 545.057 208.635C545.351 208.211 545.635 207.792 545.919 207.378C546.35 206.75 546.767 206.137 547.17 205.538L547.449 205.124L547.505 205.04C551.959 198.388 548.978 195.496 548.978 195.496C548.978 195.496 547.108 193.053 544.695 189.822C544.576 189.657 544.452 189.493 544.323 189.323C543.29 187.927 542.153 186.401 541.037 184.875L540.174 183.689C539.849 183.245 539.529 182.801 539.219 182.362C539.095 182.198 538.976 182.028 538.862 181.864C536.48 178.543 534.517 175.646 534.114 174.619C533.484 172.998 529.465 168.206 525.461 164.003C522.304 160.682 519.163 157.73 517.752 157.022C514.554 155.392 513.237 150.121 513.237 150.121C513.237 150.121 506.278 147.768 505.338 145.953C504.397 144.138 491.228 135.98 491.228 135.98C491.228 135.98 485.902 132.669 483.747 130.675C483.442 130.414 483.176 130.114 482.957 129.782C482.208 128.486 477.315 127.419 475.326 127.035C474.81 126.935 474.489 126.88 474.489 126.88C473.686 125.472 472.671 124.186 471.477 123.066C470.666 122.373 469.654 119.984 468.801 117.671C467.876 115.148 467.158 112.719 467.158 112.719C465.65 107.818 462.643 109.269 462.643 109.269C462.647 109.938 462.581 110.607 462.447 111.263C461.191 117.247 454.372 119.74 450.791 122.537C446.839 125.619 440.634 133.612 435.742 135.242C431.691 136.593 426.995 141.689 425.507 143.39L425.394 143.519C425.146 143.799 425.022 143.958 425.022 143.958C425.022 143.958 422.247 143.818 420.558 143.789H419.943C419.599 143.755 419.273 143.627 419.003 143.42C417.324 142.318 414.823 139.087 413.733 138.344C412.421 137.431 411.098 122.727 411.098 122.727L411.031 122.697C406.345 120.578 401.318 141.789 401.318 141.789C401.318 141.789 392.479 144.332 391.724 146.147C391.58 146.506 390.913 147.144 389.911 147.917C385.347 151.283 380.49 154.261 375.394 156.818C375.28 156.872 375.171 156.927 375.058 156.972C374.955 157.026 374.85 157.074 374.743 157.117C374.551 157.207 374.365 157.286 374.19 157.361C373.911 157.481 373.653 157.581 373.415 157.66L373.105 157.765C372.364 158.003 371.667 158.351 371.038 158.797C370.852 158.927 370.666 159.061 370.486 159.206C369.782 159.771 369.135 160.399 368.553 161.081C368.465 161.181 368.383 161.285 368.3 161.385C367.908 161.859 367.556 162.327 367.267 162.761C366.792 163.43 366.359 164.126 365.97 164.846C365.97 164.846 358.262 177.555 355.813 179.001C353.364 180.447 351.861 195.162 351.861 195.162L360.127 224.735C360.127 224.735 360.514 232.215 361.238 239.844C361.641 244.122 362.152 248.475 362.762 251.606Z" fill="#CED7E7"/>
<path d="M425.022 144.856C425.022 144.856 430.565 147.758 434.894 148.032C435.461 148.057 436.029 148.026 436.589 147.937C441.125 147.274 447.779 143.674 447.779 143.674L439.973 135.412L430.477 139.954L426.985 143.091L425.022 144.856Z" fill="#63667E"/>
<path opacity="0.1" d="M380.622 70.9046C380.819 71.1727 381.042 71.4215 381.289 71.6475C384.006 74.1407 388.831 73.1085 392.536 72.5301C395.755 72.0222 398.899 71.1451 401.902 69.9173C404.517 68.8403 407.652 67.5239 410.003 69.0697C410.907 69.658 411.527 70.6004 412.468 71.119C413.408 71.6376 414.606 71.6725 415.717 71.6874C419.334 71.6874 422.95 71.7273 426.479 70.9395C431.743 69.7528 437.189 66.766 442.195 68.7356C446.111 70.2713 448.234 74.385 449.293 78.3391C449.81 80.2787 450.192 82.3281 451.36 83.9735C452.527 85.619 454.785 86.7858 456.707 86.0129C459.543 84.8711 459.962 80.2239 463.382 79.9895C467.138 79.7352 467.091 83.4799 465.996 86.1874C464.374 90.1764 462.25 94.1654 462.157 98.324C466.194 91.3461 468.102 83.4078 467.659 75.4274C467.216 67.447 464.442 59.7506 459.657 53.2283C458.824 52.7306 458.172 51.9953 457.792 51.1241C457.754 51.0063 457.723 50.8865 457.699 50.7651C457.415 49.374 458.216 47.913 458.262 46.457C458.443 42.9018 454.454 40.4237 450.797 39.9749C448.363 39.6757 445.873 39.9051 443.435 39.8303C442.206 39.8042 440.985 39.647 439.792 39.3616C437.735 38.7666 435.809 37.8117 434.109 36.5444C428.247 35.2039 422.161 35.0421 416.231 36.0689C410.301 37.0958 404.653 39.2894 399.639 42.5132C394.625 45.737 390.352 49.9221 387.086 54.8082C383.82 59.6943 381.63 65.1767 380.653 70.9146L380.622 70.9046Z" fill="black"/>
<path d="M379.739 67.9677C379.996 68.954 380.533 69.8517 381.288 70.5605C384.006 73.0537 388.831 72.0165 392.536 71.4381C395.755 70.9413 398.9 70.0707 401.902 68.8453C404.516 67.7732 407.652 66.4569 410.003 68.0026C410.907 68.591 411.527 69.5334 412.467 70.0519C413.408 70.5705 414.606 70.6054 415.717 70.6154C419.333 70.6403 422.95 70.6603 426.479 69.8724C431.743 68.6807 437.188 65.699 442.195 67.6635C446.111 69.1993 448.234 73.3179 449.293 77.272C449.81 79.2117 450.192 81.261 451.36 82.9015C452.527 84.542 454.785 85.7187 456.707 84.9459C459.543 83.804 459.962 79.1568 463.382 78.9225C467.138 78.6682 467.091 82.4129 465.996 85.1204C464.074 89.8424 461.46 94.5394 462.318 99.5456C463.17 99.5456 464.58 99.5157 465.417 99.4957C464.766 98.4237 466.006 97.1472 467.241 96.7832C468.476 96.4192 469.917 96.4242 470.857 95.5566C471.798 94.689 471.803 93.3477 471.705 92.146C471.49 89.5776 470.839 87.0608 469.778 84.6966C469.101 83.2007 468.228 81.5802 468.744 80.0145C469.055 79.3048 469.428 78.6224 469.86 77.9751C470.935 75.9806 470.682 73.4875 469.762 71.4281C469.37 70.5506 469.085 69.7229 468.76 68.935C468.349 67.8152 467.754 66.7663 466.998 65.8286C465.815 64.4075 464.658 62.2684 465.965 60.9471C466.296 60.613 465.634 60.3836 465.846 59.9498C465.884 59.8757 465.91 59.7968 465.924 59.7155C465.984 59.1902 465.853 58.661 465.552 58.2196C465.491 58.1049 465.423 57.9934 465.35 57.8855C465.291 57.7716 465.223 57.6616 465.149 57.5564C464.005 55.7129 462.484 54.1132 460.68 52.8544C459.559 52.0715 458.246 51.3186 457.802 50.0521C457.285 48.5562 458.195 46.9656 458.272 45.385C458.453 41.8298 454.465 39.3516 450.807 38.9029C447.149 38.4541 443.357 39.197 439.792 38.2846C434.734 36.9981 431.18 32.69 426.587 30.2717C424.074 28.975 421.288 28.2498 418.441 28.1512C415.593 28.0527 412.76 28.5836 410.158 29.7032C404.795 32.0667 400.75 36.8435 395.15 38.6386C393.166 39.2768 391.017 39.5311 389.229 40.5882C387.163 41.8148 385.907 43.9589 384.833 46.0731C383.195 49.2792 382.864 52.5004 381.733 55.896C380.834 58.5886 379.589 62.1089 379.485 65.2103C379.427 66.1365 379.513 67.0658 379.739 67.9677V67.9677Z" fill="#896363"/>
<g opacity="0.1">
<path opacity="0.1" d="M465.294 61.72C465.211 61.4008 465.203 61.068 465.27 60.7454C465.337 60.4229 465.477 60.1188 465.681 59.8551C465.547 60.244 466.131 60.4684 465.81 60.7925C465.555 61.0514 465.377 61.3717 465.294 61.72Z" fill="black"/>
<path opacity="0.1" d="M465.696 58.7131C465.757 58.8872 465.794 59.0683 465.805 59.2516C465.707 59.0921 465.572 58.9275 465.696 58.7131Z" fill="black"/>
<path opacity="0.1" d="M381.144 69.3438C383.867 71.8369 388.687 70.8048 392.402 70.2214C395.618 69.7215 398.76 68.8458 401.758 67.6136C404.377 66.5365 407.508 65.2202 409.864 66.7659C410.763 67.3543 411.383 68.2967 412.328 68.8153C413.274 69.3338 414.467 69.3687 415.578 69.3787C419.194 69.3787 422.811 69.4236 426.345 68.6308C431.604 67.444 437.049 64.4672 442.055 66.4268C445.972 67.9676 448.095 72.0812 449.154 76.0353C449.671 77.975 450.048 80.0243 451.221 81.6698C452.393 83.3153 454.651 84.482 456.568 83.7142C459.404 82.5673 459.823 77.9251 463.243 77.6908C465.914 77.5063 466.658 79.3512 466.477 81.4005C466.322 79.8349 465.444 78.6282 463.243 78.7778C459.823 79.0121 459.404 83.6593 456.568 84.8012C454.651 85.574 452.388 84.4122 451.221 82.7568C450.053 81.1014 449.671 79.062 449.154 77.1273C448.095 73.1732 445.972 69.0546 442.055 67.5188C437.049 65.5542 431.604 68.5161 426.345 69.7227C422.831 70.5156 419.184 70.4906 415.578 70.4657C414.467 70.4657 413.294 70.4358 412.328 69.9072C411.362 69.3787 410.778 68.4463 409.864 67.8529C407.508 66.3122 404.377 67.6285 401.758 68.7006C398.76 69.9322 395.618 70.8094 392.402 71.3134C388.687 71.8918 383.867 72.9339 381.144 70.4308C379.667 69.0695 379.222 67.1 379.32 64.9459C379.403 66.6562 379.92 68.2069 381.144 69.3438Z" fill="black"/>
<path opacity="0.1" d="M458.091 44.4824C458.12 44.7307 458.13 44.9807 458.122 45.2304C458.071 46.2675 457.663 47.3046 457.533 48.3168C457.342 47.0753 457.936 45.7788 458.091 44.4824Z" fill="black"/>
<path opacity="0.1" d="M468.59 79.8598C468.547 80.0089 468.514 80.1605 468.491 80.3136C468.408 79.7992 468.441 79.2734 468.59 78.7728C468.898 78.0606 469.271 77.3764 469.705 76.7285C470.094 75.9909 470.324 75.1853 470.382 74.36C470.487 75.5514 470.253 76.7479 469.705 77.8205C469.27 78.4661 468.896 79.1487 468.59 79.8598Z" fill="black"/>
<path opacity="0.1" d="M462.178 98.299L465.2 98.2541C465.13 98.4303 465.102 98.6197 465.118 98.8079C465.134 98.9962 465.194 99.1785 465.293 99.3411C464.441 99.3411 463.025 99.371 462.194 99.391C462.049 98.5376 461.999 97.6718 462.044 96.8081C462.056 97.3073 462.1 97.8053 462.178 98.299Z" fill="black"/>
<path opacity="0.1" d="M467.122 95.5415C468.357 95.1825 469.793 95.1775 470.713 94.3049C471.254 93.7334 471.56 92.99 471.571 92.2157C471.648 93.3625 471.571 94.5991 470.713 95.3969C469.793 96.2695 468.357 96.2745 467.122 96.6335C466.721 96.7463 466.347 96.9372 466.025 97.1944C465.702 97.4517 465.437 97.7699 465.247 98.1294C464.725 97.0973 465.924 95.8856 467.122 95.5415Z" fill="black"/>
</g>
<path opacity="0.1" d="M373.131 319.713C373.71 319.389 374.299 319.085 374.898 318.796C376.133 318.195 377.399 317.656 378.69 317.18C384.658 314.986 391.048 314.189 397.527 314.323C400.11 315.276 401.789 315.959 401.789 315.959L405.075 316.916L405.623 317.076C405.659 316.727 405.7 316.378 405.736 316.024C405.772 315.67 405.814 315.33 405.855 314.981C407.012 304.406 407.922 293.541 407.922 293.541V284.156V283.064L407.984 255.416L408.5 246.301L408.743 242.267L408.79 241.499L408.883 239.923L408.934 238.986C409.048 238.689 409.145 238.386 409.224 238.079C409.26 237.954 409.296 237.814 409.327 237.67C409.456 237.171 409.595 236.528 409.74 235.83C410.686 231.242 411.869 223.509 411.941 221.938C412.034 219.844 413.915 207.318 413.915 207.318C414.106 200.422 420.114 187.438 421.628 184.99C423.142 182.542 424.831 167.832 424.263 167.039C423.968 166.616 423.777 164.108 423.658 161.794C423.658 161.53 423.632 161.27 423.622 161.016C423.545 159.206 423.508 157.695 423.508 157.695L417.598 156.568L416.012 156.269L415.888 156.244L415.836 156.344C415.666 156.648 415.134 157.62 414.509 158.897C414.436 159.032 414.369 159.176 414.297 159.321C414.266 159.391 414.23 159.46 414.194 159.53C413.036 161.973 411.698 165.19 411.755 167.039C411.848 170.31 407.989 178.209 407.989 178.209C407.617 180.024 399.433 198.084 399.433 198.084C399.433 198.084 392.753 215.785 393.13 218.692C393.507 221.599 389.932 240.841 389.932 240.841L386.264 260.631C384.482 264.531 382.131 273.516 382.131 273.516L381.237 278.612L381.067 279.584L378.685 293.182L377.518 299.843C377.518 299.843 377.027 303.383 376.283 307.323C376.221 307.677 376.149 308.036 376.076 308.395C375.618 310.988 374.967 313.546 374.128 316.048C373.713 317.248 373.38 318.472 373.131 319.713V319.713Z" fill="black"/>
<path d="M372.49 320.067C372.702 319.948 372.914 319.828 373.131 319.713C373.71 319.389 374.299 319.085 374.898 318.796C376.132 318.195 377.398 317.656 378.69 317.18C384.657 314.986 391.048 314.189 397.526 314.323C400.11 315.276 401.789 315.959 401.789 315.959L405.074 316.916C405.116 316.567 405.152 316.218 405.193 315.864C405.235 315.51 405.266 315.226 405.297 314.907C406.454 304.356 407.363 293.541 407.363 293.541V284.067V282.975L407.425 255.396L407.942 246.69L408.045 244.885L408.117 243.663L408.21 242.048L408.303 240.407L408.371 239.225V238.966C408.371 238.941 408.371 238.911 408.407 238.881C408.505 238.612 408.624 238.203 408.753 237.685L408.815 237.435C408.841 237.321 408.872 237.196 408.898 237.071C409.869 232.818 411.295 223.648 411.372 221.928C411.465 219.834 413.346 207.308 413.346 207.308C413.537 200.412 419.545 187.428 421.059 184.98C422.573 182.532 424.257 167.822 423.694 167.029C423.369 166.531 423.177 163.504 423.053 161.006C423.053 160.807 423.053 160.612 423.053 160.428C422.986 158.887 422.96 157.685 422.96 157.685L417.463 156.638L416.068 156.374L415.852 156.334L415.335 156.234C415.335 156.234 414.658 157.441 413.847 159.101L413.744 159.311C412.561 161.774 411.16 165.125 411.202 167.029C411.295 170.3 407.436 178.199 407.436 178.199C407.064 180.014 398.88 198.074 398.88 198.074C398.88 198.074 392.2 215.775 392.577 218.682C392.954 221.589 389.379 240.831 389.379 240.831L385.711 260.621C383.929 264.521 381.578 273.506 381.578 273.506L380.746 278.253L380.576 279.215L378.7 289.945L376.97 299.833C376.97 299.833 376.453 303.358 375.74 307.313C375.673 307.672 375.606 308.031 375.533 308.395C375.076 310.999 374.425 313.569 373.586 316.083C373.128 317.386 372.762 318.717 372.49 320.067V320.067Z" fill="#63667E"/>
<path d="M377.151 63.9787C377.151 63.9787 379.124 66.4319 380.907 66.4319C382.689 66.4319 389.628 66.1577 393.244 65.0707C396.86 63.9837 414.591 63.1609 414.591 63.1609C414.591 63.1609 439.7 63.2507 440.547 62.4329C441.394 61.6152 456.16 57.2572 457.663 57.5315C457.978 57.5913 458.748 57.7209 459.776 57.8855L460.954 58.07C462.737 58.3442 464.963 58.6633 466.999 58.8977C469.515 59.1819 471.726 59.3265 472.429 59.0772V56.988C472.429 56.988 469.515 52.8992 469.329 51.7275C469.143 50.5557 466.694 33.5675 460.298 27.4893C457.656 22.6143 453.38 18.7474 448.168 16.5195C439.514 12.8846 430.86 9.80307 430.86 9.80307L429.347 9.59365L424.464 8.89557C424.316 8.75298 424.155 8.62287 423.984 8.50664C422.63 7.50939 418.528 5.34037 413.181 10.0025L412.236 11.4585C412.236 11.4585 395.781 15.1782 388.166 28.1575C380.55 41.1367 380.168 53.8466 379.605 59.6556C379.605 59.6556 379.982 61.2911 379.228 61.9243C378.955 62.1571 378.694 62.4035 378.448 62.6623C378.38 62.7271 378.313 62.7919 378.251 62.8618C378.034 63.0712 377.833 63.2906 377.667 63.4701C377.648 63.4841 377.63 63.5009 377.616 63.5199C377.575 63.5672 377.532 63.6121 377.487 63.6546L377.151 63.9787Z" fill="#FED253"/>
<path opacity="0.05" d="M377.151 63.9786C377.151 63.9786 379.125 66.4318 380.907 66.4318C382.689 66.4318 389.628 66.1576 393.244 65.0706C396.861 63.9835 414.592 63.1608 414.592 63.1608C414.592 63.1608 439.7 63.2506 440.547 62.4328C441.395 61.6151 456.16 57.2571 457.663 57.5313C457.979 57.5912 458.748 57.7208 459.776 57.8854L460.045 56.2898L460.112 55.8959C460.112 55.8959 431.615 49.9971 412.618 53.0886C393.621 56.1801 379.605 59.6206 379.605 59.6206C379.605 59.6206 379.982 61.2561 379.228 61.8893C378.955 62.1221 378.694 62.3685 378.448 62.6273C378.381 62.6921 378.313 62.7569 378.251 62.8267C378.034 63.0362 377.833 63.2556 377.668 63.4351C377.648 63.4491 377.631 63.4659 377.616 63.4849C377.576 63.5321 377.532 63.577 377.487 63.6196L377.151 63.9786Z" fill="black"/>
<path opacity="0.1" d="M379.739 67.9677C383.258 68.2319 389.741 67.4042 392.578 67.0003C393.384 66.8856 394.174 66.746 394.97 66.5765C398.013 65.9383 407.369 64.1482 413.052 64.9759C419.918 65.9732 439.292 64.1582 439.292 64.1582C439.292 64.1582 451.236 61.7997 456.036 59.8949C457.798 59.1919 460.742 58.9725 463.672 59.3215C464.419 59.4114 465.16 59.5396 465.893 59.7055C469.892 60.6179 473.266 62.6972 472.682 66.2424C472.905 65.9838 473.112 65.7124 473.302 65.4297C473.555 62.1886 472.511 60.2589 471.065 59.1221L470.724 58.9874C468.957 58.5028 467.158 58.1314 465.341 57.8755C465.056 57.8306 464.762 57.7907 464.462 57.7558C459.322 57.0877 451.887 56.9381 445.615 59.9847C445.615 59.9847 439.788 62.6224 435.836 62.6224C431.883 62.6224 399.723 62.8966 392.195 64.9809C390.697 65.3987 389.169 65.7104 387.623 65.9133C384.879 66.2548 382.09 66.001 379.46 65.1704C379.406 66.111 379.501 67.0542 379.739 67.9677V67.9677Z" fill="black"/>
<path opacity="0.1" d="M377.151 63.9786C377.151 63.9786 379.124 66.4319 380.907 66.4319C382.689 66.4319 389.628 66.1576 393.244 65.0706C396.86 63.9836 414.591 63.1609 414.591 63.1609C414.591 63.1609 439.7 63.2506 440.547 62.4329C441.394 61.6151 456.16 57.2572 457.663 57.5314C457.978 57.5912 458.748 57.7209 459.776 57.8854L460.954 58.0699C463 58.0598 465.037 58.3387 466.999 58.8976C469.515 59.1819 471.726 59.3265 472.429 59.0771V58.6633C471.887 58.3599 471.322 58.0965 470.739 57.8755C467.253 56.9332 463.663 56.3943 460.045 56.2699C455.535 56.1103 450.26 56.6189 445.626 58.8727C445.626 58.8727 439.798 61.5104 435.846 61.5104C431.894 61.5104 399.733 61.7797 392.206 63.8689C390.706 64.2829 389.178 64.5928 387.633 64.7964C384.243 65.2087 380.8 64.7316 377.667 63.4152C377.648 63.4292 377.63 63.446 377.616 63.4651C377.575 63.5122 377.532 63.5571 377.487 63.5997L377.151 63.9786Z" fill="black"/>
<path d="M472.609 66.1576C472.609 66.1576 478.912 61.5254 470.729 58.4389C470.729 58.4389 456.433 54.1757 445.615 59.4362C445.615 59.4362 439.787 62.0639 435.835 62.0639C431.883 62.0639 399.722 62.3382 392.195 64.4274C390.696 64.8419 389.168 65.1518 387.623 65.3549C383.618 65.8235 379.561 65.0795 376.014 63.2257C375.497 62.9515 375.032 62.8119 374.893 62.9714C374.423 63.5199 374.795 66.6962 378.933 67.3294C382.162 67.828 389.498 66.8856 392.583 66.4518C393.383 66.3371 394.179 66.1925 394.969 66.028C398.012 65.3898 407.369 63.5997 413.077 64.4274C419.938 65.4247 439.317 63.6097 439.317 63.6097C439.317 63.6097 451.257 61.2512 456.056 59.3414C460.856 57.4317 474.397 59.0772 472.609 66.1576Z" fill="#FED253"/>
<path opacity="0.1" d="M419.473 17.4868C419.99 16.7688 426.629 11.638 429.336 9.56369L424.454 8.86561C424.305 8.72302 424.145 8.59291 423.973 8.47668C420.424 12.0718 419.473 17.4868 419.473 17.4868Z" fill="black"/>
<path opacity="0.1" d="M441.007 45.0059L443.172 48.0924L434.895 47.8232L434.709 44.3727L441.007 45.0059Z" fill="black"/>
<path opacity="0.1" d="M390.506 48.7307L389.566 51.543L384.296 52.3607L386.554 49L390.506 48.7307Z" fill="black"/>
<path opacity="0.1" d="M480.979 143.14C480.416 144.048 461.889 167.573 456.997 166.92C452.104 166.267 480.979 143.14 480.979 143.14Z" fill="black"/>
<path opacity="0.1" d="M418.905 164.641C418.905 164.641 414.39 168.82 415.051 170.45C415.712 172.081 418.905 164.641 418.905 164.641Z" fill="black"/>
<path opacity="0.1" d="M468.187 193.327C468.187 193.327 472.139 211.208 470.067 211.776C467.996 212.345 468.187 193.327 468.187 193.327Z" fill="black"/>
<path opacity="0.1" d="M417.401 262.765C416.745 264.58 411.29 276.383 410.065 277.016C408.841 277.649 417.401 262.765 417.401 262.765Z" fill="black"/>
<path opacity="0.1" d="M354.011 214.294C354.202 214.927 358.904 218.652 357.87 220.013C356.837 221.375 354.011 214.294 354.011 214.294Z" fill="black"/>
<path opacity="0.1" d="M390.506 247.423C390.599 247.881 391.539 257.395 389.751 259.225C387.964 261.055 390.506 247.423 390.506 247.423Z" fill="black"/>
<path opacity="0.1" d="M342.314 296.846C343.678 297.579 345.088 298.287 346.524 298.966C348.074 299.694 349.624 300.387 351.205 301.04C351.835 301.304 352.466 301.563 353.091 301.813C354.041 302.192 354.982 302.556 355.912 302.905C358.738 303.972 361.46 304.899 363.883 305.682C364.824 305.986 365.723 306.265 366.56 306.525C370.775 307.816 373.575 308.519 373.575 308.519C374.215 308.387 374.87 308.335 375.523 308.365C375.704 308.365 375.89 308.365 376.081 308.365C376.956 308.426 377.827 308.532 378.69 308.684C384.461 309.681 392.613 312.478 397.527 314.308C400.11 315.261 401.789 315.944 401.789 315.944L405.075 316.901L405.622 317.061C409.182 318.108 414.188 319.594 415.991 320.212C418.905 321.209 444.205 326.29 444.205 326.29C446.516 326.899 448.877 327.316 451.262 327.537C457.139 328.057 463.046 328.187 468.941 327.926C474.862 328.295 484.44 327.038 490.015 326.19L490.903 326.056C493.058 325.717 494.427 325.472 494.427 325.472L493.703 324.51L478.871 304.76L478.783 304.64L464.963 286.246L464.446 285.577L463.191 283.907C463.191 283.907 462.437 282.91 459.533 282.845C459.192 282.845 458.82 282.845 458.412 282.845C455.973 283.034 453.567 283.508 451.246 284.256L450.575 284.451C440.568 287.218 425.099 286.525 425.099 286.525C425.099 286.525 415.475 285.029 407.911 284.131L407.348 284.062C404.876 283.725 402.388 283.517 399.893 283.438C395.284 283.528 385.313 281.17 385.313 281.17C383.169 280.726 382.265 280.352 381.056 279.519C380.896 279.41 380.726 279.29 380.54 279.16C380.023 278.786 379.429 278.327 378.664 277.759C377.269 276.727 375.311 275.326 372.232 273.361C371.964 273.192 371.679 273.022 371.375 272.863C371.07 272.703 370.682 272.489 370.31 272.309C367.328 270.946 364.184 269.941 360.949 269.317C358.265 268.76 355.542 268.399 352.802 268.235H352.393C344.644 267.836 336.729 269.118 332.1 273.321C331.291 274.06 330.585 274.898 330.002 275.814C329.72 276.25 329.468 276.703 329.248 277.171C328.826 278.064 328.512 279.001 328.313 279.963C328.275 280.143 328.244 280.322 328.22 280.501C328.22 280.556 328.22 280.606 328.22 280.661C328.22 280.806 328.189 280.95 328.179 281.095C327.765 287.063 334.182 292.459 342.314 296.846Z" fill="black"/>
<path d="M494.427 324.4C494.427 324.4 477.688 327.392 468.941 326.849C468.941 326.849 452.858 327.666 444.205 325.218C444.205 325.218 418.89 320.132 415.991 319.135C413.093 318.138 401.789 314.867 401.789 314.867C401.789 314.867 379.78 305.971 373.575 307.422C373.575 307.422 324.857 295.261 328.339 278.831C331.821 262.401 362.571 266.126 372.253 272.294C381.935 278.462 380.519 279.105 385.324 280.103C385.324 280.103 395.295 282.461 399.903 282.371C404.512 282.282 425.11 285.458 425.11 285.458C425.11 285.458 441.286 286.186 451.252 283.189C461.217 280.192 463.196 282.825 463.196 282.825L494.427 324.4Z" fill="#BE9A9A"/>
<path opacity="0.1" d="M458.128 281.758C458.126 281.778 458.126 281.798 458.128 281.818C458.164 282.189 458.264 282.551 458.423 282.89C460.407 287.587 471.669 300.257 471.669 300.257C472.183 301.762 472.802 303.232 473.524 304.655C475.076 307.698 476.863 310.623 478.871 313.406C481.847 317.57 485.097 321.545 488.599 325.308H488.625C489.071 325.627 489.535 325.922 490.015 326.191C491.229 326.889 493.053 327.751 494.773 327.856C495.066 327.873 495.36 327.864 495.651 327.831C495.471 327.831 495.295 327.791 495.135 327.761L495.765 327.582L496.628 327.322C498.074 326.884 499.509 326.403 500.931 325.881L501.794 325.562C503.172 325.05 504.52 324.5 505.84 323.912L506.702 323.533C508.08 322.915 509.428 322.261 510.748 321.573C511.223 321.334 511.693 321.075 512.158 320.83C513.563 320.072 514.941 319.278 516.291 318.447C517.724 317.566 519.126 316.647 520.496 315.69C521.53 313.84 522.382 312.199 522.847 311.317C523.694 309.676 523.767 307.328 523.663 305.627C523.663 305.453 523.663 305.288 523.632 305.129C523.545 304.062 523.41 303.329 523.41 303.329C524.176 302.341 524.866 301.301 525.477 300.217C525.827 299.679 526.027 299.062 526.055 298.427C526.032 298.172 526.057 297.916 526.128 297.669C526.526 296.094 528.236 293.386 529.817 291.686C530.994 290.434 531.067 285.757 530.953 282.441C530.886 280.447 530.757 278.981 530.757 278.981C530.988 278.837 531.162 278.62 531.248 278.367C531.663 277.276 531.944 276.141 532.085 274.987C532.085 274.822 532.131 274.658 532.157 274.488C532.488 272.199 532.637 269.901 532.637 269.901C536.46 267.213 538.279 263.02 539.126 259.28L539.235 258.781C539.7 256.483 539.898 254.142 539.824 251.801C539.824 251.576 539.824 251.407 539.824 251.302C539.824 251.197 539.824 251.177 539.824 251.177C539.824 251.177 539.317 240.372 537.902 236.154C537.845 235.974 537.783 235.81 537.721 235.655C537.617 235.39 537.482 235.138 537.318 234.902C536.801 234.239 536.435 232.988 536.13 231.507C535.918 230.479 535.742 229.338 535.613 228.201C535.494 227.253 535.401 226.311 535.329 225.438C535.128 223.105 535.066 221.285 535.066 221.285L536.021 216.737C536.285 215.496 536.486 214.244 536.626 212.993C536.626 212.828 536.667 212.664 536.688 212.494C536.929 210.183 536.973 207.856 536.817 205.538C536.817 205.369 536.817 205.204 536.786 205.04C536.383 199.76 534.952 194.601 532.57 189.832L532.312 189.333C531.967 188.668 531.606 188.015 531.227 187.373C530.953 186.9 530.664 186.431 530.364 185.967C529.57 184.725 528.708 183.525 527.781 182.372C527.647 182.203 527.507 182.038 527.368 181.874C525.756 179.945 523.964 178.162 522.015 176.548C516.797 172.22 512.008 170.34 507.658 170.196C488.636 169.548 477.967 202.018 476.241 207.707C476.076 208.256 475.993 208.555 475.993 208.555C475.993 208.555 468.285 215.999 470.543 219.265C470.981 219.984 471.247 220.788 471.323 221.619C471.943 226.012 470.166 233.247 470.166 233.247C470.166 233.247 469.536 235.241 467.696 240.018L467.154 241.414C466.002 244.406 465.733 249.427 466.394 253.925C467.03 258.233 468.523 262.042 470.915 263.02C475.808 265.014 474.49 267.009 473.364 268.649C472.695 269.825 472.136 271.057 471.695 272.329C470.987 274.169 470.331 276.104 470.083 276.857C470.011 277.066 469.975 277.181 469.975 277.181C469.289 276.925 468.577 276.741 467.851 276.632C466.927 276.508 466.012 276.597 465.836 277.36C465.743 277.769 465.211 278.253 464.462 278.736C462.241 280.212 458.128 281.758 458.128 281.758Z" fill="black"/>
<path d="M459.254 281.758C459.286 282.137 459.386 282.509 459.549 282.855C461.522 287.557 472.795 300.257 472.795 300.257C473.311 301.761 473.931 303.231 474.65 304.655C475.897 307.112 477.307 309.489 478.871 311.77C482.11 316.485 485.698 320.968 489.607 325.183L489.725 325.308C489.725 325.308 490.18 325.642 490.903 326.071C492.196 326.867 493.62 327.444 495.114 327.776L495.744 327.597L496.607 327.337C498.054 326.899 499.488 326.418 500.911 325.896L501.773 325.577C503.151 325.065 504.5 324.515 505.819 323.927L506.681 323.548C508.059 322.929 509.408 322.276 510.727 321.588C511.202 321.349 511.672 321.09 512.137 320.845C513.542 320.087 514.92 319.293 516.27 318.462C517.703 317.581 519.105 316.662 520.476 315.704C521.109 315.266 521.736 314.815 522.356 314.353C523.054 313.077 523.612 312 523.958 311.331C524.805 309.691 524.877 307.343 524.774 305.642C524.774 305.468 524.774 305.303 524.743 305.144C524.655 304.077 524.521 303.344 524.521 303.344C524.521 303.344 524.939 302.8 525.446 302.062C525.73 301.653 526.035 301.179 526.308 300.711C526.825 299.833 527.228 298.946 527.151 298.442C527.14 298.356 527.14 298.269 527.151 298.183C527.158 298.014 527.184 297.847 527.228 297.684C527.626 296.108 529.341 293.401 530.922 291.701C532.1 290.449 532.172 285.772 532.064 282.456C532.064 282.287 532.064 282.122 532.064 281.958C531.991 280.237 531.883 278.996 531.883 278.996C532.467 278.751 532.916 276.941 533.205 275.007L533.283 274.508C533.614 272.219 533.763 269.921 533.763 269.921C537.587 267.233 539.405 263.04 540.247 259.3C540.834 256.681 541.06 253.998 540.919 251.322C540.919 251.242 540.919 251.197 540.919 251.197C540.919 251.197 540.475 240.337 539.059 236.114C539.002 235.934 538.94 235.77 538.878 235.615C538.754 235.357 538.6 235.112 538.418 234.887C537.633 233.83 537.111 231.287 536.77 228.684L536.708 228.186C536.279 224.695 536.161 221.27 536.161 221.27L537.122 216.722C537.383 215.476 537.585 214.228 537.726 212.978C537.752 212.813 537.767 212.644 537.788 212.479C538.03 210.168 538.073 207.841 537.917 205.523C537.917 205.354 537.917 205.189 537.881 205.025C537.48 199.744 536.05 194.585 533.665 189.817C533.583 189.647 533.5 189.483 533.407 189.318C532.743 188.023 532.004 186.764 531.196 185.548C530.917 185.125 530.633 184.706 530.333 184.292C529.863 183.634 529.372 182.985 528.861 182.357L528.447 181.859C526.849 179.937 525.073 178.16 523.141 176.548C517.458 171.846 512.292 170.031 507.642 170.196C489.328 170.829 479.047 202.133 477.357 207.707C477.192 208.256 477.109 208.555 477.109 208.555C477.109 208.555 469.396 215.999 471.654 219.265C472.091 219.984 472.358 220.788 472.434 221.619C473.059 226.012 471.276 233.247 471.276 233.247C471.276 233.247 470.646 235.241 468.807 240.018C468.642 240.462 468.461 240.926 468.29 241.414C467.138 244.406 466.87 249.427 467.531 253.925C468.166 258.238 469.654 262.042 472.051 263.02C476.939 265.014 475.626 267.009 474.495 268.649C473.826 269.825 473.267 271.057 472.826 272.329C471.933 274.678 471.111 277.181 471.111 277.181C470.773 277.055 470.428 276.947 470.078 276.857C469.359 276.628 468.598 276.552 467.846 276.632C467.638 276.648 467.44 276.727 467.281 276.857C467.123 276.988 467.011 277.164 466.963 277.36C466.823 277.959 465.754 278.701 464.457 279.405C462.773 280.289 461.036 281.075 459.254 281.758V281.758Z" fill="#CED7E7"/>
<path opacity="0.1" d="M527.254 233.81C525.466 233.721 506.279 226.55 502.326 228.999C498.374 231.447 473.911 247.333 473.911 247.333C473.911 247.333 489.24 228.001 502.595 223.464C515.95 218.926 527.254 233.81 527.254 233.81Z" fill="black"/>
<path opacity="0.1" d="M499.67 263.04C499.67 263.04 480.483 266.759 477.569 269.302L499.67 263.04Z" fill="black"/>
<path opacity="0.1" d="M503.365 290.733C503.643 291.008 510.597 306.071 510.039 306.071C509.481 306.071 503.55 297.096 503.55 297.096L503.365 290.733Z" fill="black"/>
<path opacity="0.1" d="M490.289 272.658C490.289 272.658 495.93 274.568 495.274 274.747C494.618 274.927 490.48 273.476 490.289 272.658Z" fill="black"/>
<path opacity="0.1" d="M495.93 295.445C494.99 297.35 491.983 303.069 491.322 302.162C490.661 301.254 495.93 295.445 495.93 295.445Z" fill="black"/>
<path opacity="0.1" d="M425.503 144.472L426.308 145.579C426.308 145.579 432.71 141.226 435.339 139.047C437.969 136.868 444.179 146.85 449.071 149.573C453.964 152.295 462.235 153.023 462.235 153.023C462.235 153.023 468.631 146.85 468.435 145.045C468.239 143.24 471.442 142.687 471.633 141.415C471.824 140.144 472.95 136.514 474.454 134.699C475.249 133.741 475.363 130.745 475.291 128.137C474.774 128.037 474.454 127.982 474.454 127.982C473.651 126.574 472.636 125.288 471.442 124.168C469.747 122.717 467.118 113.821 467.118 113.821C465.614 108.92 462.607 110.371 462.607 110.371C462.607 117.815 454.703 120.538 450.756 123.624C446.809 126.711 440.599 134.699 435.706 136.334C431.692 137.655 426.996 142.766 425.503 144.472Z" fill="black"/>
<path d="M425.503 143.38L426.309 144.492C426.309 144.492 432.735 140.149 435.365 137.955C437.995 135.761 444.205 145.758 449.097 148.481C453.99 151.203 462.261 151.936 462.261 151.936C462.261 151.936 468.657 145.758 468.461 143.958C468.264 142.158 471.468 141.6 471.659 140.323C471.85 139.047 472.976 135.422 474.48 133.607C475.275 132.649 475.389 129.653 475.317 127.045L474.48 126.895C473.677 125.487 472.662 124.201 471.468 123.081C469.773 121.625 467.143 112.734 467.143 112.734C465.64 107.833 462.633 109.279 462.633 109.279C462.633 116.723 454.729 119.451 450.782 122.537C446.834 125.624 440.624 133.607 435.732 135.242C431.692 136.583 426.996 141.674 425.503 143.38Z" fill="#CED7E7"/>
<path opacity="0.1" d="M425.022 144.856C425.022 144.856 430.565 147.758 434.895 148.032C435.462 148.057 436.029 148.026 436.589 147.937C436.589 147.937 431.81 144.492 427.373 143.789L425.022 144.856Z" fill="black"/>
<path opacity="0.1" d="M413.733 159.65C413.733 159.65 420.723 157.022 423.033 160.976C422.955 159.161 422.924 157.655 422.924 157.655L415.304 156.199C415.304 156.199 414.57 157.511 413.713 159.276C413.733 159.51 413.733 159.65 413.733 159.65Z" fill="black"/>
<path d="M436.589 147.937C436.589 147.937 428.215 143.086 424.19 143.494C419.969 143.918 411.791 144.217 411.791 144.217C411.791 144.217 414.612 150.39 414.235 151.662C413.857 152.933 413.764 159.106 413.764 159.106C413.764 159.106 422.227 155.93 423.637 161.829C423.637 161.829 428.246 155.202 431.351 153.203C433.411 151.766 435.186 149.982 436.589 147.937Z" fill="#63667E"/>
<path opacity="0.1" d="M389.281 153.572C391.725 153.572 400.378 148.301 402.259 144.856C404.139 141.41 406.774 145.215 409.218 146.491C410.768 147.309 416.911 145.599 420.222 144.357C418.543 143.255 414.823 140.154 413.733 139.411C412.421 138.498 411.098 123.794 411.098 123.794C406.397 121.435 401.318 142.856 401.318 142.856C401.318 142.856 392.474 145.399 391.725 147.214C391.58 147.573 390.913 148.211 389.911 148.984C388.878 151.497 388.31 153.572 389.281 153.572Z" fill="black"/>
<path d="M389.281 152.48C391.725 152.48 400.378 147.214 402.259 143.769C404.139 140.323 406.774 144.128 409.218 145.399C410.768 146.217 415.691 144.636 419.003 143.405C417.324 142.308 414.823 139.077 413.733 138.329C412.421 137.421 411.098 122.717 411.098 122.717C406.397 120.358 401.319 141.779 401.319 141.779C401.319 141.779 392.474 144.322 391.725 146.137C391.58 146.496 390.913 147.134 389.911 147.907C388.878 150.405 388.31 152.48 389.281 152.48Z" fill="#CED7E7"/>
<path d="M355.86 311.526L274.071 245.707C273.255 245.042 272.215 244.687 271.147 244.71L240.635 245.483C240.635 245.483 238.522 246.979 241.621 250.25L318.776 311.356C319.609 312.014 320.644 312.389 321.72 312.423L355.085 313.491C355.324 313.498 355.56 313.433 355.76 313.304C355.959 313.176 356.112 312.991 356.198 312.775C356.283 312.559 356.296 312.322 356.236 312.098C356.175 311.874 356.044 311.674 355.86 311.526Z" fill="#19D3DA"/>
<path d="M316.295 303.428C316.295 303.428 298.43 328.12 278.581 305.154C258.732 282.187 264.472 270.12 270.491 269.482C276.509 268.844 310.375 293.989 316.295 303.428Z" fill="#BE9A9A"/>
<path opacity="0.1" d="M195.801 27.2599C195.801 27.2599 172.775 -15.8711 145.559 6.37252C145.559 6.37252 139.617 8.46176 140.067 14.525C140.067 14.525 142.355 13.3134 144.174 17.9456C144.842 19.5892 145.709 21.1508 146.757 22.5978C148.15 24.5525 150.162 26.0186 152.492 26.7763V26.7763C152.492 26.7763 164.705 35.6069 187.328 28.7957C187.328 28.7957 193.724 29.6832 194.758 28.9154L187.323 23.6698C187.323 23.6698 183.547 29.0799 178.024 29.6982C178.024 29.6982 187.323 24.0637 186.259 22.8421C186.042 22.5928 182.188 20.2343 182.188 20.2343C182.188 20.2343 175.58 29.6134 167.014 30.3065C167.014 30.3065 179.016 25.0261 180.736 19.3368L174.707 16.0907C174.707 16.0907 168.228 26.3375 158.5 27.4843C158.5 27.4843 170.848 21.5457 173.338 15.4674L166.958 13.0641C166.958 13.0641 160.432 22.9368 152.337 23.8394C152.337 23.8394 165.883 15.5871 165.459 12.6053C165.459 12.6053 159.461 10.7405 157.622 10.9848C157.622 10.9848 152.771 17.9656 148.018 18.0902C148.018 18.0902 156.465 11.648 155.907 10.6557C155.907 10.6557 147.424 10.2319 142.991 12.2114C142.991 12.2114 149.294 8.82576 155.907 9.37425C155.907 9.37425 152.915 5.97861 149.015 5.23067C149.015 5.23067 153.69 3.37579 157.963 9.4989C157.963 9.4989 164.56 10.0823 165.377 10.7903C165.377 10.7903 162.039 4.1686 157.932 1.35137C157.932 1.35137 164.054 2.3935 167.087 11.3687L173.555 13.6475C173.555 13.6475 169.623 4.67221 166.157 1.89986C166.157 1.89986 172.232 3.89436 175.136 14.3655L181.088 17.4869C181.088 17.4869 178.313 9.50888 175.146 5.61461C175.146 5.61461 180.369 8.63628 182.761 18.4392L186.481 20.9673C186.481 20.9673 184.347 15.1733 183.578 13.5627C182.808 11.9521 183.195 11.6181 183.195 11.6181C185.781 14.5685 187.468 18.1537 188.067 21.9745C188.067 21.9745 195.372 27.6588 195.801 27.2599Z" fill="#19D3DA"/>
<path opacity="0.1" d="M100.57 50.3263C100.57 50.3263 90.1648 30.8351 77.8689 40.8873C77.8689 40.8873 75.1824 41.8297 75.3891 44.5672C75.3891 44.5672 76.4223 44.0237 77.2438 46.1179C77.5414 46.8597 77.9299 47.5644 78.4011 48.2171C79.0298 49.0982 79.9354 49.7607 80.9842 50.1069V50.1069C80.9842 50.1069 86.507 54.0959 96.7312 51.0194C96.7312 51.0194 99.6192 51.4183 100.084 51.0742L96.7261 48.7008C96.7261 48.7008 95.0212 51.149 92.5207 51.4233C92.5207 51.4233 96.7157 48.8803 96.2404 48.3268C96.1474 48.2171 94.4064 47.1501 94.4064 47.1501C94.4064 47.1501 91.4202 51.3884 87.5455 51.7025C87.5455 51.7025 92.9701 49.3141 93.7451 46.7163L91.0173 45.2553C91.0173 45.2553 88.0931 49.8875 83.6966 50.4061C83.6966 50.4061 89.2762 47.7235 90.4128 44.9761L87.53 43.8891C87.53 43.8891 84.5851 48.3518 80.9274 48.7606C80.9274 48.7606 87.0495 45.0309 86.8532 43.6846C86.8532 43.6846 84.146 42.842 83.3142 42.9517C83.3142 42.9517 81.1237 46.1079 78.9745 46.1578C78.9745 46.1578 82.7924 43.2508 82.5393 42.8021C82.5393 42.8021 78.7059 42.6126 76.7117 43.5051C76.7117 43.5051 79.5583 41.9743 82.5393 42.2237C81.717 41.321 80.6397 40.6694 79.4395 40.3488C79.4395 40.3488 81.5525 39.5111 83.4847 42.2785C83.4847 42.2785 86.4657 42.5428 86.8325 42.8619C86.8325 42.8619 85.324 39.8701 83.4692 38.5987C83.4692 38.5987 86.2384 39.0674 87.6023 43.1262L90.4955 44.1733C90.4955 44.1733 88.7234 40.1195 87.1528 38.8629C87.1528 38.8629 89.9013 39.7654 91.2136 44.4924L93.9001 45.8985C93.9001 45.8985 92.6498 42.2885 91.2188 40.5333C91.2188 40.5333 93.5798 41.8995 94.6544 46.3273L96.3386 47.4692C96.3386 47.4692 95.3725 44.8514 95.0263 44.1234C94.6802 43.3954 94.8558 43.2458 94.8558 43.2458C96.0243 44.5837 96.7861 46.2077 97.0567 47.9379C97.0567 47.9379 100.389 50.5058 100.57 50.3263Z" fill="#19D3DA"/>
<path opacity="0.1" d="M213.315 73.0038C213.315 73.0038 202.91 53.5126 190.584 63.5648C190.584 63.5648 187.902 64.5072 188.104 67.2497C188.104 67.2497 189.137 66.7012 189.958 68.7954C190.258 69.5364 190.646 70.2409 191.116 70.8946C191.751 71.7799 192.666 72.4429 193.725 72.7844V72.7844C193.725 72.7844 199.242 76.7734 209.467 73.6969C209.467 73.6969 212.355 74.1008 212.819 73.7517L209.461 71.3783C209.461 71.3783 207.756 73.8265 205.261 74.1058C205.261 74.1058 209.456 71.5578 208.981 71.0043C208.883 70.8946 207.142 69.8276 207.142 69.8276C207.142 69.8276 204.156 74.0659 200.286 74.38C200.286 74.38 205.705 71.9916 206.486 69.3937L203.758 67.9378C203.758 67.9378 200.828 72.565 196.432 73.0836C196.432 73.0836 202.011 70.401 203.148 67.6535L200.265 66.5665C200.265 66.5665 197.315 71.0292 193.657 71.4381C193.657 71.4381 199.78 67.7084 199.588 66.3621C199.588 66.3621 196.876 65.5194 196.044 65.6291C196.044 65.6291 193.854 68.7854 191.705 68.8403C191.705 68.8403 195.523 65.9283 195.269 65.4795C195.269 65.4795 191.441 65.2901 189.442 66.1826C189.442 66.1826 192.294 64.6518 195.275 64.9011C194.452 63.9985 193.375 63.3469 192.175 63.0263C192.175 63.0263 194.283 62.1886 196.215 64.956C196.215 64.956 199.196 65.2203 199.563 65.5394C199.563 65.5394 198.059 62.5476 196.199 61.2761C196.199 61.2761 198.968 61.7448 200.332 65.8036L203.262 66.8508C203.262 66.8508 201.485 62.7969 199.919 61.5454C199.919 61.5454 202.662 62.4429 203.975 67.1699L206.666 68.576C206.666 68.576 205.411 64.966 203.98 63.2108C203.98 63.2108 206.341 64.577 207.421 69.0048L209.105 70.1467C209.105 70.1467 208.139 67.5289 207.793 66.8009C207.446 66.0729 207.617 65.9233 207.617 65.9233C208.788 67.2598 209.55 68.8845 209.818 70.6154C209.818 70.6154 213.135 73.1833 213.315 73.0038Z" fill="#19D3DA"/>
</svg>